<svg xmlns="http://www.w3.org/2000/svg" width="720" height="280" viewBox="0 0 720 280">
  <rect width="720" height="280" fill="#f8fafc"/>
  <text x="24" y="32" font-family="system-ui,sans-serif" font-size="14" font-weight="600" fill="#0f172a">English tests</text>
  <rect x="24" y="44" width="56" height="24" rx="12" fill="#dbeafe" stroke="#2563eb"/>
  <text x="36" y="60" font-family="system-ui,sans-serif" font-size="10" fill="#1d4ed8">IELTS</text>
  <text x="86" y="60" font-family="system-ui,sans-serif" font-size="9" fill="#64748b">Active</text>
  <rect x="130" y="44" width="48" height="24" rx="12" fill="#fff" stroke="#cbd5e1"/>
  <text x="142" y="60" font-family="system-ui,sans-serif" font-size="10" fill="#334155">PTE</text>
  <rect x="24" y="84" width="672" height="120" rx="8" fill="#fff" stroke="#e2e8f0"/>
  <text x="40" y="110" font-family="system-ui,sans-serif" font-size="13" font-weight="600" fill="#0f172a">IELTS</text>
  <rect x="90" y="94" width="68" height="20" rx="10" fill="#f1f5f9" stroke="#cbd5e1"/>
  <text x="100" y="108" font-family="system-ui,sans-serif" font-size="9" fill="#475569">Academic</text>
  <rect x="168" y="94" width="48" height="20" rx="10" fill="#e2e8f0"/>
  <text x="178" y="108" font-family="system-ui,sans-serif" font-size="9" fill="#475569">taken</text>
  <text x="230" y="110" font-family="system-ui,sans-serif" font-size="12" fill="#334155">Overall <tspan font-weight="600">7.5</tspan></text>
  <rect x="40" y="124" width="100" height="22" rx="4" fill="#f8fafc" stroke="#e2e8f0"/>
  <text x="48" y="139" font-family="system-ui,sans-serif" font-size="10" fill="#64748b">listening <tspan fill="#0f172a" font-weight="500">8.0</tspan></text>
  <rect x="148" y="124" width="90" height="22" rx="4" fill="#f8fafc" stroke="#e2e8f0"/>
  <text x="156" y="139" font-family="system-ui,sans-serif" font-size="10" fill="#64748b">reading <tspan fill="#0f172a" font-weight="500">7.5</tspan></text>
  <rect x="246" y="124" width="90" height="22" rx="4" fill="#f8fafc" stroke="#e2e8f0"/>
  <text x="254" y="139" font-family="system-ui,sans-serif" font-size="10" fill="#64748b">writing <tspan fill="#0f172a" font-weight="500">7.0</tspan></text>
  <text x="40" y="175" font-family="system-ui,sans-serif" font-size="11" font-weight="500" fill="#475569">Linked documents</text>
  <rect x="40" y="184" width="200" height="22" rx="4" fill="#f1f5f9" stroke="#e2e8f0"/>
  <text x="48" y="199" font-family="system-ui,sans-serif" font-size="10" fill="#334155">TRF · IELTS_TRF.pdf</text>
  <text x="24" y="260" font-family="system-ui,sans-serif" font-size="10" fill="#94a3b8">TestScoreBlock  canonical test_id: ielts · single record + ielts_variant</text>
</svg>
